<svg xmlns="http://www.w3.org/2000/svg" width="1366" height="235" viewBox="0 0 1366 235"><defs><style>.cls-1,.cls-2,.cls-7{fill:#f9f9f9;}.cls-1,.cls-4{opacity:0.25;}.cls-2,.cls-3{opacity:0.35;}.cls-3,.cls-4{fill:none;stroke:#fff;stroke-miterlimit:10;}.cls-3{stroke-width:3px;}.cls-4{stroke-width:2px;}.cls-5,.cls-6{fill:#fff;}.cls-5{opacity:0.1;}.cls-6{opacity:0.3;}.cls-7{opacity:0.5;}</style></defs><title>footer</title><g id="Layer_7" data-name="Layer 7"><circle class="cls-1" cx="220.5" cy="127.5" r="6.5"/><circle class="cls-2" cx="786.5" cy="15.5" r="6.5"/><circle class="cls-2" cx="69.5" cy="36.5" r="6.5"/><circle class="cls-1" cx="1339.5" cy="77.5" r="6.5"/><circle class="cls-3" cx="620" cy="127" r="6.5"/><circle class="cls-3" cx="1246" cy="16" r="6.5"/><circle class="cls-3" cx="316" cy="57" r="6.5"/><polygon class="cls-4" points="534.14 43.98 536.57 48.9 542 49.69 538.07 53.52 539 58.94 534.14 56.38 529.28 58.94 530.21 53.52 526.27 49.69 531.71 48.9 534.14 43.98"/><polygon class="cls-4" points="1076.14 29.98 1078.57 34.9 1084 35.69 1080.07 39.52 1081 44.94 1076.14 42.38 1071.28 44.94 1072.21 39.52 1068.28 35.69 1073.71 34.9 1076.14 29.98"/></g><g id="Layer_1" data-name="Layer 1"><path id="_Path_" data-name="&lt;Path&gt;" class="cls-5" d="M1,86c85.93,29.54,215.59,63.24,373,60,211.53-4.36,305.38-72,502-90,115.14-10.56,281.26-5.57,490,71l-.5,114.5H-.5Z"/></g><g id="Layer_3" data-name="Layer 3"><path class="cls-6" d="M0,132.79c325.1,92.65,553.87,67.43,706.24,23.77,91.73-26.29,251.38-84.2,459.83-54.64A850.53,850.53,0,0,1,1366,156l-1,85H.5"/></g><g id="Layer_6" data-name="Layer 6"><path class="cls-7" d="M0,241H1366V190a1269.07,1269.07,0,0,0-219-34c-122.8-8.17-219.09,4.29-285,13-120.8,16-298.8,52.15-384.65,49-31.86-1.17-67.29-3.41-67.29-3.41-35.1-2.24-61.79-4.66-78.43-6.13C258.61,202,150.21,193.66,0,186Z"/></g><g id="Layer_5" data-name="Layer 5"><path class="cls-7" d="M1366,189c-29.38,8.59-72.38,20.05-125,30-114.14,21.58-197.43,21.65-338,21.82Q728,241,553,241c-184.24.18-232,1.31-314-7A1716.27,1716.27,0,0,1,0,192.57v48.24H1366Z"/></g></svg>